<mxfile host="app.diagrams.net" agent="Mozilla/5.0 (Windows NT 10.0; Win64; x64) AppleWebKit/537.36 (KHTML, like Gecko) Chrome/129.0.0.0 Safari/537.36 Edg/129.0.0.0" version="24.7.16">
  <diagram name="第 1 页" id="eRQgcrVo7P7DJozp7v7i">
    <mxGraphModel dx="1042" dy="661" grid="1" gridSize="10" guides="1" tooltips="1" connect="1" arrows="1" fold="1" page="1" pageScale="1" pageWidth="827" pageHeight="1169" math="0" shadow="0">
      <root>
        <mxCell id="0" />
        <mxCell id="1" parent="0" />
        <mxCell id="QuEIqX_yD57I_pgex_k4-2" value="0" style="ellipse;whiteSpace=wrap;html=1;aspect=fixed;strokeWidth=3;strokeColor=#66CC00;fontSize=16;" vertex="1" parent="1">
          <mxGeometry x="330" y="10" width="80" height="80" as="geometry" />
        </mxCell>
        <mxCell id="QuEIqX_yD57I_pgex_k4-3" value="1" style="ellipse;whiteSpace=wrap;html=1;aspect=fixed;strokeWidth=3;strokeColor=#66CC00;fontSize=16;" vertex="1" parent="1">
          <mxGeometry x="210" y="120" width="80" height="80" as="geometry" />
        </mxCell>
        <mxCell id="QuEIqX_yD57I_pgex_k4-4" value="2" style="ellipse;whiteSpace=wrap;html=1;aspect=fixed;strokeWidth=3;strokeColor=#66CC00;fontSize=16;" vertex="1" parent="1">
          <mxGeometry x="420" y="120" width="80" height="80" as="geometry" />
        </mxCell>
        <mxCell id="QuEIqX_yD57I_pgex_k4-5" value="3" style="ellipse;whiteSpace=wrap;html=1;aspect=fixed;strokeWidth=3;strokeColor=#66CC00;fontSize=16;" vertex="1" parent="1">
          <mxGeometry x="130" y="240" width="80" height="80" as="geometry" />
        </mxCell>
        <mxCell id="QuEIqX_yD57I_pgex_k4-6" value="4" style="ellipse;whiteSpace=wrap;html=1;aspect=fixed;strokeWidth=3;strokeColor=#66CC00;fontSize=16;" vertex="1" parent="1">
          <mxGeometry x="260" y="240" width="80" height="80" as="geometry" />
        </mxCell>
        <mxCell id="QuEIqX_yD57I_pgex_k4-9" value="" style="endArrow=none;html=1;rounded=0;exitX=1;exitY=0;exitDx=0;exitDy=0;strokeWidth=3;strokeColor=#000000;" edge="1" parent="1" source="QuEIqX_yD57I_pgex_k4-3" target="QuEIqX_yD57I_pgex_k4-2">
          <mxGeometry width="50" height="50" relative="1" as="geometry">
            <mxPoint x="290" y="130" as="sourcePoint" />
            <mxPoint x="340" y="80" as="targetPoint" />
          </mxGeometry>
        </mxCell>
        <mxCell id="QuEIqX_yD57I_pgex_k4-10" value="" style="endArrow=none;html=1;rounded=0;strokeWidth=3;strokeColor=#000000;" edge="1" parent="1" source="QuEIqX_yD57I_pgex_k4-4" target="QuEIqX_yD57I_pgex_k4-2">
          <mxGeometry width="50" height="50" relative="1" as="geometry">
            <mxPoint x="460" y="190" as="sourcePoint" />
            <mxPoint x="510" y="140" as="targetPoint" />
          </mxGeometry>
        </mxCell>
        <mxCell id="QuEIqX_yD57I_pgex_k4-11" value="" style="endArrow=none;html=1;rounded=0;strokeWidth=3;strokeColor=#000000;" edge="1" parent="1" target="QuEIqX_yD57I_pgex_k4-3">
          <mxGeometry width="50" height="50" relative="1" as="geometry">
            <mxPoint x="190" y="250" as="sourcePoint" />
            <mxPoint x="230" y="200" as="targetPoint" />
          </mxGeometry>
        </mxCell>
        <mxCell id="QuEIqX_yD57I_pgex_k4-14" value="" style="endArrow=none;html=1;rounded=0;entryX=0.665;entryY=0.985;entryDx=0;entryDy=0;entryPerimeter=0;strokeWidth=3;strokeColor=#000000;" edge="1" parent="1" source="QuEIqX_yD57I_pgex_k4-6" target="QuEIqX_yD57I_pgex_k4-3">
          <mxGeometry width="50" height="50" relative="1" as="geometry">
            <mxPoint x="230" y="240" as="sourcePoint" />
            <mxPoint x="280" y="190" as="targetPoint" />
          </mxGeometry>
        </mxCell>
        <mxCell id="QuEIqX_yD57I_pgex_k4-78" value="" style="endArrow=none;html=1;rounded=0;fontSize=22;fontStyle=1" edge="1" parent="1">
          <mxGeometry width="50" height="50" relative="1" as="geometry">
            <mxPoint x="570" y="390" as="sourcePoint" />
            <mxPoint x="100" y="390" as="targetPoint" />
          </mxGeometry>
        </mxCell>
        <mxCell id="QuEIqX_yD57I_pgex_k4-79" value="" style="endArrow=none;html=1;rounded=0;fontSize=22;fontStyle=1" edge="1" parent="1">
          <mxGeometry width="50" height="50" relative="1" as="geometry">
            <mxPoint x="570" y="460" as="sourcePoint" />
            <mxPoint x="100" y="460" as="targetPoint" />
          </mxGeometry>
        </mxCell>
        <mxCell id="QuEIqX_yD57I_pgex_k4-123" value="" style="rounded=0;whiteSpace=wrap;html=1;" vertex="1" parent="1">
          <mxGeometry x="40" y="517" width="600" height="70" as="geometry" />
        </mxCell>
        <mxCell id="QuEIqX_yD57I_pgex_k4-124" value="" style="endArrow=none;html=1;rounded=0;" edge="1" parent="1" source="QuEIqX_yD57I_pgex_k4-123">
          <mxGeometry width="50" height="50" relative="1" as="geometry">
            <mxPoint x="70" y="567" as="sourcePoint" />
            <mxPoint x="120" y="517" as="targetPoint" />
          </mxGeometry>
        </mxCell>
        <mxCell id="QuEIqX_yD57I_pgex_k4-125" value="" style="endArrow=none;html=1;rounded=0;exitX=0.15;exitY=1;exitDx=0;exitDy=0;exitPerimeter=0;" edge="1" parent="1">
          <mxGeometry width="50" height="50" relative="1" as="geometry">
            <mxPoint x="109" y="587" as="sourcePoint" />
            <mxPoint x="109" y="517" as="targetPoint" />
          </mxGeometry>
        </mxCell>
        <mxCell id="QuEIqX_yD57I_pgex_k4-126" value="" style="endArrow=none;html=1;rounded=0;exitX=0.15;exitY=1;exitDx=0;exitDy=0;exitPerimeter=0;" edge="1" parent="1">
          <mxGeometry width="50" height="50" relative="1" as="geometry">
            <mxPoint x="250" y="587" as="sourcePoint" />
            <mxPoint x="250" y="517" as="targetPoint" />
          </mxGeometry>
        </mxCell>
        <mxCell id="QuEIqX_yD57I_pgex_k4-127" value="" style="endArrow=none;html=1;rounded=0;exitX=0.15;exitY=1;exitDx=0;exitDy=0;exitPerimeter=0;" edge="1" parent="1">
          <mxGeometry width="50" height="50" relative="1" as="geometry">
            <mxPoint x="180" y="587" as="sourcePoint" />
            <mxPoint x="180" y="517" as="targetPoint" />
          </mxGeometry>
        </mxCell>
        <mxCell id="QuEIqX_yD57I_pgex_k4-128" value="" style="endArrow=none;html=1;rounded=0;exitX=0.15;exitY=1;exitDx=0;exitDy=0;exitPerimeter=0;" edge="1" parent="1">
          <mxGeometry width="50" height="50" relative="1" as="geometry">
            <mxPoint x="404" y="587" as="sourcePoint" />
            <mxPoint x="404" y="517" as="targetPoint" />
          </mxGeometry>
        </mxCell>
        <mxCell id="QuEIqX_yD57I_pgex_k4-129" value="" style="endArrow=none;html=1;rounded=0;exitX=0.15;exitY=1;exitDx=0;exitDy=0;exitPerimeter=0;" edge="1" parent="1">
          <mxGeometry width="50" height="50" relative="1" as="geometry">
            <mxPoint x="330" y="587" as="sourcePoint" />
            <mxPoint x="330" y="517" as="targetPoint" />
          </mxGeometry>
        </mxCell>
        <mxCell id="QuEIqX_yD57I_pgex_k4-130" value="" style="endArrow=none;html=1;rounded=0;exitX=0.15;exitY=1;exitDx=0;exitDy=0;exitPerimeter=0;" edge="1" parent="1">
          <mxGeometry width="50" height="50" relative="1" as="geometry">
            <mxPoint x="484" y="587" as="sourcePoint" />
            <mxPoint x="484" y="517" as="targetPoint" />
          </mxGeometry>
        </mxCell>
        <mxCell id="QuEIqX_yD57I_pgex_k4-131" value="" style="endArrow=none;html=1;rounded=0;exitX=0.15;exitY=1;exitDx=0;exitDy=0;exitPerimeter=0;" edge="1" parent="1">
          <mxGeometry width="50" height="50" relative="1" as="geometry">
            <mxPoint x="560" y="587" as="sourcePoint" />
            <mxPoint x="560" y="517" as="targetPoint" />
          </mxGeometry>
        </mxCell>
        <mxCell id="QuEIqX_yD57I_pgex_k4-132" value="0" style="text;html=1;align=center;verticalAlign=middle;whiteSpace=wrap;rounded=0;strokeWidth=2;fontSize=16;" vertex="1" parent="1">
          <mxGeometry x="40" y="537" width="60" height="30" as="geometry" />
        </mxCell>
        <mxCell id="QuEIqX_yD57I_pgex_k4-136" value="visited" style="text;html=1;align=center;verticalAlign=middle;resizable=0;points=[];autosize=1;strokeColor=none;fillColor=none;fontSize=21;" vertex="1" parent="1">
          <mxGeometry x="54" y="460" width="80" height="40" as="geometry" />
        </mxCell>
        <mxCell id="QuEIqX_yD57I_pgex_k4-137" value="1" style="text;html=1;align=center;verticalAlign=middle;whiteSpace=wrap;rounded=0;fontStyle=1;fontSize=16;" vertex="1" parent="1">
          <mxGeometry x="114" y="537" width="60" height="30" as="geometry" />
        </mxCell>
        <mxCell id="QuEIqX_yD57I_pgex_k4-141" value="2" style="text;html=1;align=center;verticalAlign=middle;whiteSpace=wrap;rounded=0;fontStyle=1;fontSize=16;" vertex="1" parent="1">
          <mxGeometry x="184" y="537" width="60" height="30" as="geometry" />
        </mxCell>
        <mxCell id="QuEIqX_yD57I_pgex_k4-142" value="3" style="text;html=1;align=center;verticalAlign=middle;whiteSpace=wrap;rounded=0;fontStyle=1;fontSize=16;" vertex="1" parent="1">
          <mxGeometry x="264" y="537" width="60" height="30" as="geometry" />
        </mxCell>
        <mxCell id="QuEIqX_yD57I_pgex_k4-143" value="4" style="text;html=1;align=center;verticalAlign=middle;whiteSpace=wrap;rounded=0;fontStyle=1;fontSize=16;" vertex="1" parent="1">
          <mxGeometry x="334" y="537" width="60" height="30" as="geometry" />
        </mxCell>
      </root>
    </mxGraphModel>
  </diagram>
</mxfile>
